<?xml version="1.0" encoding="UTF-8" standalone="no"?>
<!DOCTYPE svg PUBLIC "-//W3C//DTD SVG 1.1//EN"
 "http://www.w3.org/Graphics/SVG/1.1/DTD/svg11.dtd">
<!-- Generated by graphviz version 13.1.0 (20250701.0955)
 -->
<!-- Title: hdc1080_basic_init Pages: 1 -->
<svg width="286pt" height="556pt"
 viewBox="0.00 0.00 286.00 556.00" xmlns="http://www.w3.org/2000/svg" xmlns:xlink="http://www.w3.org/1999/xlink">
<g id="graph0" class="graph" transform="scale(1 1) rotate(0) translate(4 552)">
<title>hdc1080_basic_init</title>
<!-- Node1 -->
<g id="Node000001" class="node">
<title>Node1</title>
<g id="a_Node000001"><a xlink:title="basic example init">
<polygon fill="#999999" stroke="#666666" points="99.25,-296 0,-296 0,-276 99.25,-276 99.25,-296"/>
<text xml:space="preserve" text-anchor="middle" x="49.62" y="-282.5" font-family="Helvetica,sans-Serif" font-size="10.00">hdc1080_basic_init</text>
</a>
</g>
</g>
<!-- Node2 -->
<g id="Node000002" class="node">
<title>Node2</title>
<g id="a_Node000002"><a xlink:href="group__hdc1080__base__driver.html#ga882e726d24d6231e8eeb4b3a70173a37" target="_top" xlink:title="close the chip">
<polygon fill="white" stroke="#666666" points="247.25,-548 166,-548 166,-528 247.25,-528 247.25,-548"/>
<text xml:space="preserve" text-anchor="middle" x="206.62" y="-534.5" font-family="Helvetica,sans-Serif" font-size="10.00">hdc1080_deinit</text>
</a>
</g>
</g>
<!-- Node1&#45;&gt;Node2 -->
<g id="edge1_Node000001_Node000002" class="edge">
<title>Node1&#45;&gt;Node2</title>
<g id="a_edge1_Node000001_Node000002"><a xlink:title=" ">
<path fill="none" stroke="#63b8ff" d="M51.13,-296.18C53.49,-332.33 66.48,-455.82 135.25,-519 140.89,-524.18 147.78,-527.97 155.04,-530.74"/>
<polygon fill="#63b8ff" stroke="#63b8ff" points="153.78,-534.01 164.36,-533.66 155.87,-527.33 153.78,-534.01"/>
</a>
</g>
</g>
<!-- Node3 -->
<g id="Node000003" class="node">
<title>Node3</title>
<g id="a_Node000003"><a xlink:href="group__hdc1080__base__driver.html#gac20dc3eba62b08c6de3321eb5a64276a" target="_top" xlink:title="initialize the chip">
<polygon fill="white" stroke="#666666" points="242,-510 171.25,-510 171.25,-490 242,-490 242,-510"/>
<text xml:space="preserve" text-anchor="middle" x="206.62" y="-496.5" font-family="Helvetica,sans-Serif" font-size="10.00">hdc1080_init</text>
</a>
</g>
</g>
<!-- Node1&#45;&gt;Node3 -->
<g id="edge2_Node000001_Node000003" class="edge">
<title>Node1&#45;&gt;Node3</title>
<g id="a_edge2_Node000001_Node000003"><a xlink:title=" ">
<path fill="none" stroke="#63b8ff" d="M51.95,-296.31C56.68,-328.74 75.77,-429.61 135.25,-481 142.26,-487.06 151.02,-491.21 159.95,-494.04"/>
<polygon fill="#63b8ff" stroke="#63b8ff" points="158.81,-497.36 169.37,-496.5 160.58,-490.58 158.81,-497.36"/>
</a>
</g>
</g>
<!-- Node4 -->
<g id="Node000004" class="node">
<title>Node4</title>
<g id="a_Node000004"><a xlink:href="group__hdc1080__interface__driver.html#ga55399a3475d6ac34da2096fc13e89227" target="_top" xlink:title="interface print format data">
<polygon fill="white" stroke="#666666" points="270.12,-472 143.12,-472 143.12,-440 270.12,-440 270.12,-472"/>
<text xml:space="preserve" text-anchor="start" x="151.12" y="-458.5" font-family="Helvetica,sans-Serif" font-size="10.00">hdc1080_interface_debug</text>
<text xml:space="preserve" text-anchor="middle" x="206.62" y="-446.5" font-family="Helvetica,sans-Serif" font-size="10.00">_print</text>
</a>
</g>
</g>
<!-- Node1&#45;&gt;Node4 -->
<g id="edge3_Node000001_Node000004" class="edge">
<title>Node1&#45;&gt;Node4</title>
<g id="a_edge3_Node000001_Node000004"><a xlink:title=" ">
<path fill="none" stroke="#63b8ff" d="M53.88,-296.43C62.65,-322.83 89.24,-392.88 135.25,-431 136.35,-431.91 137.48,-432.78 138.64,-433.63"/>
<polygon fill="#63b8ff" stroke="#63b8ff" points="136.43,-436.38 146.76,-438.72 140.14,-430.44 136.43,-436.38"/>
</a>
</g>
</g>
<!-- Node5 -->
<g id="Node000005" class="node">
<title>Node5</title>
<g id="a_Node000005"><a xlink:href="group__hdc1080__interface__driver.html#gaa1097e5d053af09713eb4cfdc68789a2" target="_top" xlink:title="interface delay ms">
<polygon fill="white" stroke="#666666" points="278,-422 135.25,-422 135.25,-402 278,-402 278,-422"/>
<text xml:space="preserve" text-anchor="middle" x="206.62" y="-408.5" font-family="Helvetica,sans-Serif" font-size="10.00">hdc1080_interface_delay_ms</text>
</a>
</g>
</g>
<!-- Node1&#45;&gt;Node5 -->
<g id="edge4_Node000001_Node000005" class="edge">
<title>Node1&#45;&gt;Node5</title>
<g id="a_edge4_Node000001_Node000005"><a xlink:title=" ">
<path fill="none" stroke="#63b8ff" d="M55.83,-296.34C67.18,-317.8 96.29,-367.33 135.25,-393 137.35,-394.39 139.56,-395.67 141.83,-396.86"/>
<polygon fill="#63b8ff" stroke="#63b8ff" points="140.22,-399.98 150.77,-400.89 143.09,-393.6 140.22,-399.98"/>
</a>
</g>
</g>
<!-- Node6 -->
<g id="Node000006" class="node">
<title>Node6</title>
<g id="a_Node000006"><a xlink:href="group__hdc1080__interface__driver.html#ga7ac1a18820a4a993d7609414efc8d258" target="_top" xlink:title="interface iic bus deinit">
<polygon fill="white" stroke="#666666" points="261.88,-384 151.38,-384 151.38,-352 261.88,-352 261.88,-384"/>
<text xml:space="preserve" text-anchor="start" x="159.38" y="-370.5" font-family="Helvetica,sans-Serif" font-size="10.00">hdc1080_interface_iic</text>
<text xml:space="preserve" text-anchor="middle" x="206.62" y="-358.5" font-family="Helvetica,sans-Serif" font-size="10.00">_deinit</text>
</a>
</g>
</g>
<!-- Node1&#45;&gt;Node6 -->
<g id="edge5_Node000001_Node000006" class="edge">
<title>Node1&#45;&gt;Node6</title>
<g id="a_edge5_Node000001_Node000006"><a xlink:title=" ">
<path fill="none" stroke="#63b8ff" d="M63.76,-296.39C79.87,-308.75 108.36,-329.44 135.25,-343 138.13,-344.45 141.11,-345.85 144.14,-347.21"/>
<polygon fill="#63b8ff" stroke="#63b8ff" points="142.65,-350.38 153.23,-351.02 145.36,-343.92 142.65,-350.38"/>
</a>
</g>
</g>
<!-- Node7 -->
<g id="Node000007" class="node">
<title>Node7</title>
<g id="a_Node000007"><a xlink:href="group__hdc1080__interface__driver.html#gad77666531d14a3b8e882c7080a9eaadc" target="_top" xlink:title="interface iic bus init">
<polygon fill="white" stroke="#666666" points="270.88,-334 142.38,-334 142.38,-314 270.88,-314 270.88,-334"/>
<text xml:space="preserve" text-anchor="middle" x="206.62" y="-320.5" font-family="Helvetica,sans-Serif" font-size="10.00">hdc1080_interface_iic_init</text>
</a>
</g>
</g>
<!-- Node1&#45;&gt;Node7 -->
<g id="edge6_Node000001_Node000007" class="edge">
<title>Node1&#45;&gt;Node7</title>
<g id="a_edge6_Node000001_Node000007"><a xlink:title=" ">
<path fill="none" stroke="#63b8ff" d="M93.39,-296.48C111.52,-300.93 132.84,-306.16 152.01,-310.85"/>
<polygon fill="#63b8ff" stroke="#63b8ff" points="150.98,-314.21 161.53,-313.19 152.65,-307.41 150.98,-314.21"/>
</a>
</g>
</g>
<!-- Node8 -->
<g id="Node000008" class="node">
<title>Node8</title>
<g id="a_Node000008"><a xlink:href="group__hdc1080__interface__driver.html#gaab641944451fe7154ca25f647324f3e0" target="_top" xlink:title="interface iic bus read">
<polygon fill="white" stroke="#666666" points="273.88,-296 139.38,-296 139.38,-276 273.88,-276 273.88,-296"/>
<text xml:space="preserve" text-anchor="middle" x="206.62" y="-282.5" font-family="Helvetica,sans-Serif" font-size="10.00">hdc1080_interface_iic_read</text>
</a>
</g>
</g>
<!-- Node1&#45;&gt;Node8 -->
<g id="edge7_Node000001_Node000008" class="edge">
<title>Node1&#45;&gt;Node8</title>
<g id="a_edge7_Node000001_Node000008"><a xlink:title=" ">
<path fill="none" stroke="#63b8ff" d="M99.67,-286C108.66,-286 118.24,-286 127.83,-286"/>
<polygon fill="#63b8ff" stroke="#63b8ff" points="127.53,-289.5 137.53,-286 127.53,-282.5 127.53,-289.5"/>
</a>
</g>
</g>
<!-- Node9 -->
<g id="Node000009" class="node">
<title>Node9</title>
<g id="a_Node000009"><a xlink:href="group__hdc1080__interface__driver.html#ga50157e2898bafcee5dd6e3131bfa015b" target="_top" xlink:title="interface iic bus read with wait">
<polygon fill="white" stroke="#666666" points="261.88,-258 151.38,-258 151.38,-226 261.88,-226 261.88,-258"/>
<text xml:space="preserve" text-anchor="start" x="159.38" y="-244.5" font-family="Helvetica,sans-Serif" font-size="10.00">hdc1080_interface_iic</text>
<text xml:space="preserve" text-anchor="middle" x="206.62" y="-232.5" font-family="Helvetica,sans-Serif" font-size="10.00">_read_with_wait</text>
</a>
</g>
</g>
<!-- Node1&#45;&gt;Node9 -->
<g id="edge8_Node000001_Node000009" class="edge">
<title>Node1&#45;&gt;Node9</title>
<g id="a_edge8_Node000001_Node000009"><a xlink:title=" ">
<path fill="none" stroke="#63b8ff" d="M87.36,-275.57C103.07,-271.11 121.92,-265.76 139.9,-260.66"/>
<polygon fill="#63b8ff" stroke="#63b8ff" points="140.82,-264.03 149.49,-257.94 138.91,-257.3 140.82,-264.03"/>
</a>
</g>
</g>
<!-- Node10 -->
<g id="Node000010" class="node">
<title>Node10</title>
<g id="a_Node000010"><a xlink:href="group__hdc1080__interface__driver.html#gaf9eef84d96d71ac599660500fc1b9e38" target="_top" xlink:title="interface iic bus write">
<polygon fill="white" stroke="#666666" points="261.88,-208 151.38,-208 151.38,-176 261.88,-176 261.88,-208"/>
<text xml:space="preserve" text-anchor="start" x="159.38" y="-194.5" font-family="Helvetica,sans-Serif" font-size="10.00">hdc1080_interface_iic</text>
<text xml:space="preserve" text-anchor="middle" x="206.62" y="-182.5" font-family="Helvetica,sans-Serif" font-size="10.00">_write</text>
</a>
</g>
</g>
<!-- Node1&#45;&gt;Node10 -->
<g id="edge9_Node000001_Node000010" class="edge">
<title>Node1&#45;&gt;Node10</title>
<g id="a_edge9_Node000001_Node000010"><a xlink:title=" ">
<path fill="none" stroke="#63b8ff" d="M60.96,-275.55C76.09,-260.75 105.68,-233.64 135.25,-217 137.59,-215.69 140,-214.42 142.47,-213.2"/>
<polygon fill="#63b8ff" stroke="#63b8ff" points="143.82,-216.44 151.48,-209.12 140.93,-210.06 143.82,-216.44"/>
</a>
</g>
</g>
<!-- Node11 -->
<g id="Node000011" class="node">
<title>Node11</title>
<g id="a_Node000011"><a xlink:href="group__hdc1080__base__driver.html#ga8bea4f4651cb3cced0b4d4230d82cb72" target="_top" xlink:title="enable or disable heater">
<polygon fill="white" stroke="#666666" points="258.5,-158 154.75,-158 154.75,-138 258.5,-138 258.5,-158"/>
<text xml:space="preserve" text-anchor="middle" x="206.62" y="-144.5" font-family="Helvetica,sans-Serif" font-size="10.00">hdc1080_set_heater</text>
</a>
</g>
</g>
<!-- Node1&#45;&gt;Node11 -->
<g id="edge10_Node000001_Node000011" class="edge">
<title>Node1&#45;&gt;Node11</title>
<g id="a_edge10_Node000001_Node000011"><a xlink:title=" ">
<path fill="none" stroke="#63b8ff" d="M55.03,-275.57C65.39,-252.31 93.64,-195.97 135.25,-167 138.07,-165.04 141.08,-163.28 144.21,-161.7"/>
<polygon fill="#63b8ff" stroke="#63b8ff" points="145.34,-165.03 153.14,-157.85 142.57,-158.6 145.34,-165.03"/>
</a>
</g>
</g>
<!-- Node12 -->
<g id="Node000012" class="node">
<title>Node12</title>
<g id="a_Node000012"><a xlink:href="group__hdc1080__base__driver.html#gaaf1e18b35c06510e3ef4aa98638aa2df" target="_top" xlink:title="set humidity resolution">
<polygon fill="white" stroke="#666666" points="263.38,-120 149.88,-120 149.88,-88 263.38,-88 263.38,-120"/>
<text xml:space="preserve" text-anchor="start" x="157.88" y="-106.5" font-family="Helvetica,sans-Serif" font-size="10.00">hdc1080_set_humidity</text>
<text xml:space="preserve" text-anchor="middle" x="206.62" y="-94.5" font-family="Helvetica,sans-Serif" font-size="10.00">_resolution</text>
</a>
</g>
</g>
<!-- Node1&#45;&gt;Node12 -->
<g id="edge11_Node000001_Node000012" class="edge">
<title>Node1&#45;&gt;Node12</title>
<g id="a_edge11_Node000001_Node000012"><a xlink:title=" ">
<path fill="none" stroke="#63b8ff" d="M53.39,-275.53C61.29,-247.62 86.6,-170.73 135.25,-129 136.74,-127.72 138.3,-126.51 139.91,-125.36"/>
<polygon fill="#63b8ff" stroke="#63b8ff" points="141.68,-128.38 148.39,-120.19 138.03,-122.41 141.68,-128.38"/>
</a>
</g>
</g>
<!-- Node13 -->
<g id="Node000013" class="node">
<title>Node13</title>
<g id="a_Node000013"><a xlink:href="group__hdc1080__base__driver.html#gaaa3d658cf4807a8331e1d7bdb0d0cffd" target="_top" xlink:title="set the chip mode">
<polygon fill="white" stroke="#666666" points="257,-70 156.25,-70 156.25,-50 257,-50 257,-70"/>
<text xml:space="preserve" text-anchor="middle" x="206.62" y="-56.5" font-family="Helvetica,sans-Serif" font-size="10.00">hdc1080_set_mode</text>
</a>
</g>
</g>
<!-- Node1&#45;&gt;Node13 -->
<g id="edge12_Node000001_Node000013" class="edge">
<title>Node1&#45;&gt;Node13</title>
<g id="a_edge12_Node000001_Node000013"><a xlink:title=" ">
<path fill="none" stroke="#63b8ff" d="M51.68,-275.55C55.68,-241.69 72.96,-133.98 135.25,-79 138.37,-76.24 141.86,-73.88 145.56,-71.85"/>
<polygon fill="#63b8ff" stroke="#63b8ff" points="146.71,-75.18 154.39,-67.87 143.83,-68.79 146.71,-75.18"/>
</a>
</g>
</g>
<!-- Node14 -->
<g id="Node000014" class="node">
<title>Node14</title>
<g id="a_Node000014"><a xlink:href="group__hdc1080__base__driver.html#gafccb126e6a9c022d6bfc0eb6ea6b9a47" target="_top" xlink:title="set temperature resolution">
<polygon fill="white" stroke="#666666" points="270.88,-32 142.38,-32 142.38,0 270.88,0 270.88,-32"/>
<text xml:space="preserve" text-anchor="start" x="150.38" y="-18.5" font-family="Helvetica,sans-Serif" font-size="10.00">hdc1080_set_temperature</text>
<text xml:space="preserve" text-anchor="middle" x="206.62" y="-6.5" font-family="Helvetica,sans-Serif" font-size="10.00">_resolution</text>
</a>
</g>
</g>
<!-- Node1&#45;&gt;Node14 -->
<g id="edge13_Node000001_Node000014" class="edge">
<title>Node1&#45;&gt;Node14</title>
<g id="a_edge13_Node000001_Node000014"><a xlink:title=" ">
<path fill="none" stroke="#63b8ff" d="M51.13,-275.5C53.5,-238.17 66.5,-110.35 135.25,-41 135.87,-40.38 136.5,-39.77 137.15,-39.18"/>
<polygon fill="#63b8ff" stroke="#63b8ff" points="139.2,-42.02 145.1,-33.22 135,-36.41 139.2,-42.02"/>
</a>
</g>
</g>
</g>
</svg>
